<?xml version="1.0" standalone="no"?>
<!DOCTYPE svg PUBLIC "-//W3C//DTD SVG 20010904//EN"
 "http://www.w3.org/TR/2001/REC-SVG-20010904/DTD/svg10.dtd">
<svg version="1.0" xmlns="http://www.w3.org/2000/svg"
 width="423.000000pt" height="423.000000pt" viewBox="0 0 423.000000 423.000000"
 preserveAspectRatio="xMidYMid meet">
<metadata>
Created by potrace 1.11, written by Peter Selinger 2001-2013
</metadata>
<g transform="translate(0.000000,423.000000) scale(0.100000,-0.100000)"
fill="#000000" stroke="none">
<path d="M1056 3239 c-56 -152 -73 -374 -41 -539 3 -14 8 -41 11 -60 12 -60
62 -190 105 -269 163 -303 463 -515 801 -565 81 -12 303 -15 314 -3 2 2 -22
14 -53 27 -375 155 -682 434 -838 762 -24 52 -28 65 -12 44 178 -235 333 -381
578 -544 150 -100 335 -197 342 -179 8 21 5 210 -4 282 -13 96 -62 268 -99
343 -16 34 -30 64 -30 67 0 3 -19 35 -41 72 -208 341 -562 564 -950 599 l-67
6 -16 -43z"/>
<path d="M3010 3260 c-144 -30 -192 -46 -310 -102 -176 -84 -337 -218 -456
-378 l-63 -84 20 -31 c26 -40 83 -160 100 -210 7 -22 14 -42 16 -44 6 -10 143
47 212 89 157 94 328 260 438 426 41 61 51 69 28 22 -9 -18 -24 -49 -33 -68
-38 -79 -146 -233 -216 -307 -92 -98 -223 -192 -325 -234 l-77 -31 5 -52 c7
-63 7 -359 1 -406 -6 -42 -1 -43 95 -18 153 41 305 117 416 208 282 232 438
606 397 950 -12 100 -16 119 -40 205 l-23 80 -50 1 c-28 1 -88 -7 -135 -16z"/>
<path d="M1417 1610 c-83 -32 -131 -74 -171 -151 -57 -107 -53 -261 9 -359 29
-46 101 -109 135 -117 14 -3 30 -10 36 -14 18 -14 144 -19 198 -8 144 30 246
162 246 320 l0 48 -162 -2 -163 -2 -2 -62 -1 -63 69 0 69 0 -13 -32 c-28 -69
-113 -93 -189 -54 -52 26 -75 57 -92 121 -23 89 17 195 87 231 63 33 153 10
185 -47 10 -16 22 -29 27 -29 12 0 142 54 150 62 10 10 -65 103 -105 129 -75
50 -221 64 -313 29z"/>
<path d="M49 1568 c10 -24 42 -99 71 -168 50 -120 63 -152 94 -222 8 -18 31
-71 50 -118 l34 -85 65 -2 c57 -1 66 1 75 20 15 29 262 608 262 613 0 3 -41 3
-91 2 l-91 -3 -76 -189 -75 -189 -75 191 -76 192 -92 0 -93 0 18 -42z"/>
<path d="M765 1293 l0 -318 183 -1 182 -2 0 69 c0 59 -3 69 -17 70 -10 0 -54
2 -97 2 l-80 2 -1 48 c-1 26 3 51 9 55 6 4 47 7 91 7 l80 0 0 70 0 70 -90 0
-90 0 0 53 0 52 97 0 98 0 0 70 0 70 -183 0 -182 0 0 -317z"/>
<path d="M2239 1593 c-1 -23 -1 -594 0 -609 1 -8 58 -11 184 -11 l182 0 0 63
c0 34 -3 66 -7 70 -4 4 -49 7 -99 8 l-91 1 0 248 0 247 -84 0 c-73 0 -84 -2
-85 -17z"/>
<path d="M2689 1563 c-1 -57 -1 -526 0 -564 l1 -27 180 1 180 1 1 50 c1 55 -1
79 -7 85 -2 2 -45 5 -96 5 l-91 1 -2 48 c0 26 2 51 5 55 3 5 43 8 90 8 l85 -1
3 70 3 71 -86 -1 c-51 -1 -89 3 -93 9 -4 6 -7 30 -7 54 l-1 42 97 0 97 0 3 43
c2 23 3 54 1 70 l-3 27 -180 0 -179 0 -1 -47z"/>
<path d="M3325 1578 c-7 -18 -44 -112 -81 -208 -125 -330 -135 -355 -145 -373
-13 -23 -1 -26 95 -24 l79 2 20 53 20 52 71 1 c114 2 149 0 156 -8 4 -4 15
-29 25 -54 l17 -47 88 0 88 0 -8 27 c-4 14 -52 141 -105 281 -53 140 -103 271
-109 290 l-13 35 -91 3 -92 3 -15 -33z m141 -280 c13 -39 24 -75 24 -78 0 -4
-29 -7 -64 -7 l-63 0 31 93 c34 104 33 105 72 -8z"/>
<path d="M3830 1291 l0 -319 84 0 84 0 -1 117 c0 65 2 122 6 127 3 5 44 9 92
9 l86 0 -3 70 -3 70 -82 0 c-45 0 -84 3 -88 6 -3 4 -7 28 -8 53 l-2 46 101 0
101 0 0 70 1 70 -184 0 -184 0 0 -319z"/>
</g>
</svg>
