<svg xmlns="http://www.w3.org/2000/svg" xmlns:xlink="http://www.w3.org/1999/xlink" width="0.403in" height="0.458in">
<path fill-rule="evenodd"  fill="rgb(255, 255, 255)"
 d="M27.405,19.330 L23.237,21.756 L18.184,16.500 L23.236,11.244 L27.404,13.670 C28.404,14.252 29.000,15.310 29.000,16.500 C29.000,17.690 28.404,18.748 27.405,19.330 ZM2.405,0.087 C3.219,-0.113 4.087,0.034 4.810,0.520 L21.352,10.147 L16.714,14.971 L2.405,0.087 ZM0.629,31.703 C0.230,31.151 -0.000,30.473 -0.000,29.756 L-0.000,3.243 C-0.000,2.527 0.230,1.849 0.629,1.297 L15.244,16.500 L0.629,31.703 ZM21.352,22.852 L4.810,32.480 C4.296,32.825 3.708,33.000 3.118,33.000 C2.879,33.000 2.640,32.969 2.406,32.912 L16.714,18.028 L21.352,22.852 Z"/>
</svg>
