<svg xmlns="http://www.w3.org/2000/svg" viewBox="0 0 416.2 232.63"><defs><style>.cls-1{fill:#1e773c;}.cls-2{fill:#8ac440;}.cls-3{fill:#006837;}.cls-4{fill:#8cc63f;}</style></defs><title>Asset 1</title><g id="Layer_2" data-name="Layer 2"><g id="Layer_1-2" data-name="Layer 1"><path class="cls-1" d="M127.6,58.8c28.72,46,81.32,72.93,95,78.84C229.94,67.47,176.79,3.33,103.84,0c-29.7,78.29,35.52,158.88,117.35,147.61,0-.06,0-.12,0-.17C144.89,117.92,127.6,58.8,127.6,58.8Z"/><path class="cls-2" d="M298.19,27.94S268.87,77.2,228.39,87c-3.32-10.51-7.16-19.44-13.52-28A124.65,124.65,0,0,1,315.51,0c25.44,67-18,136.56-84.5,146.86,1.82-7.52,2.7-28.46,0-49.51C279.83,81.68,299.06,27.36,298.19,27.94Z"/><path class="cls-3" d="M66.68,167.11l-27.1,63.56H26.73L0,167.11H18l15.32,38.65,15.46-38.65Z"/><path class="cls-3" d="M109.52,230.67H73.34V167.11h36.18V180.9H89.87v10.85h18.58v13.78H89.87v11.36h19.65Z"/><path class="cls-3" d="M183.7,195.38q0,10.34-2.33,16.86a29.54,29.54,0,0,1-11.69,15.27,33.39,33.39,0,0,1-18.63,5.12q-17.51,0-26.87-11.92a33.9,33.9,0,0,1-7.08-21.56q0-13.87,8.29-23.33,9.4-10.76,26.26-10.76,11.27,0,19.09,5.77,5.59,4.1,9.55,12.11l-15.65,6.47a18.41,18.41,0,0,0-4.67-6.67,13.89,13.89,0,0,0-9.11-3.15q-10.79,0-15,11.1a23.13,23.13,0,0,0-1.59,8.45,21,21,0,0,0,5.75,15.1q4.25,4.51,11.35,4.51,6.31,0,10-3.66a12.53,12.53,0,0,0,3.18-7.14h-13.6V195.38Z"/><path class="cls-4" d="M256.95,230.67H220.58V167.11h16.53v49.78h19.84Z"/><path class="cls-4" d="M301.6,230.67H265.42V167.11H301.6V180.9H282v10.85h18.58v13.78H282v11.36H301.6Z"/><path class="cls-4" d="M372.47,230.67H354.82l-4.1-11.08H327.91l-4.38,11.08H306.07l24.45-63.56h18ZM346.26,207l-6.84-20.25L332.47,207Z"/><path class="cls-4" d="M416.2,180.9H396.31v10.85h18.11v13.78H396.31v25.14H379.78V167.11H416.2Z"/></g></g></svg>